<svg viewBox="0 0 16 16" class="icon" xmlns="http://www.w3.org/2000/svg">
  <path fill="currentColor" d="M 16.016 15 C 16.016 15.552 15.618 16 15.127 16 C 15.127 16 13.942 16 13.349 16 C 12.756 16 12.164 16 11.572 16 C 10.387 16 9.201 16 8.016 16 C 6.831 16 5.645 16 4.46 16 C 3.868 16 3.276 16 2.683 16 C 2.09 16 0.905 16 0.905 16 C 0.414 16 0.016 15.552 0.016 15 C 0.016 14.448 0.414 14 0.905 14 C 0.905 14 2.09 14 2.683 14 C 3.276 14 3.868 14 4.46 14 C 5.645 14 6.831 14 8.016 14 C 9.201 14 10.387 14 11.572 14 C 12.164 14 12.756 14 13.349 14 C 13.942 14 15.127 14 15.127 14 C 15.618 14 16.016 14.448 16.016 15 Z"/>
  <path fill="currentColor" d="M 0.016 1 C 0.016 0.448 0.414 0 0.905 0 C 3.276 0 5.645 0 8.016 0 C 9.201 0 10.387 0 11.572 0 C 12.164 0 12.756 0 13.349 0 C 13.942 0 15.127 0 15.127 0 C 15.618 0 16.016 0.448 16.016 1 C 16.016 1.552 15.618 2 15.127 2 C 15.127 2 13.942 2 13.349 2 C 12.756 2 12.164 2 11.572 2 C 10.387 2 9.201 2 8.016 2 C 5.645 2 3.276 2 0.905 2 C 0.414 2 0.016 1.552 0.016 1 Z"/>
  <path fill="currentColor" d="M -0.015 8 C -0.015 7.448 0.383 7 0.873 7 C 3.244 7 5.614 7 7.985 7 C 9.169 7 10.355 7 11.54 7 C 12.133 7 12.725 7 13.318 7 C 13.911 7 15.096 7 15.096 7 C 15.586 7 15.985 7.448 15.985 8 C 15.985 8.552 15.586 9 15.096 9 C 15.096 9 13.911 9 13.318 9 C 12.725 9 12.133 9 11.54 9 C 10.355 9 9.169 9 7.985 9 C 5.614 9 3.244 9 0.873 9 C 0.383 9 -0.015 8.552 -0.015 8 Z"/>
</svg>